<?xml version="1.0" encoding="UTF-8" standalone="no"?><!DOCTYPE svg PUBLIC "-//W3C//DTD SVG 1.1//EN" "http://www.w3.org/Graphics/SVG/1.1/DTD/svg11.dtd"><svg width="100%" height="100%" viewBox="0 0 1049 775" version="1.1" xmlns="http://www.w3.org/2000/svg" xmlns:xlink="http://www.w3.org/1999/xlink" xml:space="preserve" xmlns:serif="http://www.serif.com/" style="fill-rule:evenodd;clip-rule:evenodd;stroke-linejoin:round;stroke-miterlimit:2;"><path d="M609.147,662.425c6.013,0 11.492,-3.449 14.09,-8.871l81.721,-170.5c0.819,-1.708 0.819,-3.694 0.001,-5.402l-70.169,-146.439l155.347,-0c21.476,-0 41.447,11.026 52.89,29.199c11.442,18.173 12.753,40.948 3.471,60.314l-152.36,317.878c-10.395,21.688 -32.311,35.487 -56.361,35.487l-637.777,-0l36.513,-76.179c10.395,-21.688 32.311,-35.487 56.36,-35.487l516.274,0Zm-338.73,-219.547l-12.401,0c-21.476,0 -41.447,-11.026 -52.89,-29.199c-11.442,-18.173 -12.753,-40.949 -3.471,-60.315l155.439,-324.3c8.513,-17.762 26.463,-29.064 46.16,-29.064l644.899,0l-39.591,82.601c-8.513,17.763 -26.463,29.064 -46.161,29.064l-525.176,0c-4.924,0 -9.411,2.826 -11.54,7.266l-155.268,323.947Zm165.185,-111.665l98.735,-0l53.506,111.665l-205.763,0l53.522,-111.665Z" style="fill:url(#_Linear1);"/><defs><linearGradient id="_Linear1" x1="0" y1="0" x2="1" y2="0" gradientUnits="userSpaceOnUse" gradientTransform="matrix(-1110.65,774.091,-774.091,-1110.65,1048.15,1.13687e-12)"><stop offset="0" style="stop-color:#0050b2;stop-opacity:1"/><stop offset="1" style="stop-color:#00aeff;stop-opacity:1"/></linearGradient></defs></svg>