<?xml version="1.0" encoding="UTF-8" standalone="no"?>
<!DOCTYPE svg PUBLIC "-//W3C//DTD SVG 1.1//EN" "http://www.w3.org/Graphics/SVG/1.1/DTD/svg11.dtd">
<svg width="100%" height="100%" viewBox="0 0 416 312" version="1.1" xmlns="http://www.w3.org/2000/svg" xmlns:xlink="http://www.w3.org/1999/xlink" xml:space="preserve" xmlns:serif="http://www.serif.com/" style="fill-rule:evenodd;clip-rule:evenodd;stroke-linejoin:round;stroke-miterlimit:2;">
    <g transform="matrix(1,0,0,1,-42.19297,-94.398893)">
        <g id="Main-Logo" serif:id="Main Logo" transform="matrix(4.384036,0,0,4.384036,-334.588675,-386.27332)">
            <path d="M110.638,150.205C108.443,150.205 106.401,149.078 105.231,147.221C104.061,145.364 103.926,143.037 104.873,141.057L118.102,113.402C119.202,111.104 121.522,109.641 124.069,109.641L180.746,109.641L177.649,116.115C176.577,118.356 174.314,119.782 171.829,119.782L126.592,119.782C125.736,119.782 124.956,120.274 124.586,121.046L110.638,150.205ZM120.779,150.205L125.63,140.064L136.209,140.064L141.06,150.205L120.779,150.205ZM85.944,180.627L89.097,174.036C90.135,171.867 92.326,170.486 94.73,170.486L140.186,170.486C140.988,170.486 141.719,170.025 142.065,169.302L150.771,151.104C151.043,150.535 151.043,149.874 150.771,149.305L146.35,140.064L156.145,140.064C158.32,140.064 160.343,141.18 161.502,143.02C162.661,144.859 162.795,147.166 161.857,149.127L148.504,177.04C147.456,179.232 145.242,180.627 142.812,180.627L85.944,180.627Z" style="fill:url(#_Linear1);"/>
        </g>
    </g>
    <defs>
        <linearGradient id="_Linear1" x1="0" y1="0" x2="1" y2="0" gradientUnits="userSpaceOnUse" gradientTransform="matrix(94.801689,-48.800374,48.800374,94.801689,85.944004,180.62679)"><stop offset="0" style="stop-color:#001fb0;stop-opacity:1"/><stop offset="0.59" style="stop-color:#0080e8;stop-opacity:1"/><stop offset="1" style="stop-color:#0096ff;stop-opacity:1"/></linearGradient>
    </defs>
</svg>
