<?xml version="1.0" encoding="UTF-8" standalone="no"?><!DOCTYPE svg PUBLIC "-//W3C//DTD SVG 1.1//EN" "http://www.w3.org/Graphics/SVG/1.1/DTD/svg11.dtd"><svg width="100%" height="100%" viewBox="0 0 2828 775" version="1.1" xmlns="http://www.w3.org/2000/svg" xmlns:xlink="http://www.w3.org/1999/xlink" xml:space="preserve" xmlns:serif="http://www.serif.com/" style="fill-rule:evenodd;clip-rule:evenodd;stroke-linejoin:round;stroke-miterlimit:2;"><path d="M2388.44,662.425c6.012,0 11.491,-3.449 14.09,-8.871l81.721,-170.5c0.818,-1.708 0.819,-3.694 0,-5.402l-70.168,-146.439l155.347,-0c21.475,-0 41.447,11.026 52.889,29.199c11.443,18.173 12.753,40.948 3.471,60.314l-152.36,317.878c-10.394,21.688 -32.311,35.487 -56.36,35.487l-637.777,-0l36.512,-76.179c10.395,-21.688 32.311,-35.487 56.361,-35.487l516.274,0Zm-338.731,-219.547l-12.4,0c-21.476,0 -41.447,-11.026 -52.89,-29.199c-11.442,-18.173 -12.753,-40.949 -3.471,-60.315l155.438,-324.3c8.514,-17.762 26.464,-29.064 46.161,-29.064l644.899,0l-39.591,82.601c-8.514,17.763 -26.464,29.064 -46.161,29.064l-525.176,0c-4.924,0 -9.412,2.826 -11.54,7.266l-155.269,323.947Zm165.185,-111.665l98.735,-0l53.506,111.665l-205.762,0l53.521,-111.665Z" style="fill:url(#_Linear1);"/><path d="M326.868,272.512l68.98,-54.503l109.004,0c36.335,0 56.915,-9.084 61.741,-27.251c5.11,-18.167 -10.503,-27.251 -46.838,-27.251l-54.502,-0c-72.67,-0 -101.766,-27.251 -87.289,-81.754c14.477,-54.502 58.051,-81.753 130.72,-81.753l163.507,0l-68.979,54.502l-109.005,0c-36.335,0 -56.915,9.084 -61.741,27.251c-4.825,18.168 10.929,27.252 47.264,27.252l54.502,-0c72.67,-0 101.624,27.251 86.863,81.753c-14.477,54.502 -58.05,81.754 -130.72,81.754l-163.507,-0Zm561.629,-163.507c9.652,-36.335 -3.69,-54.503 -40.025,-54.503l-54.502,0c-36.335,0 -59.328,18.168 -68.98,54.503l-29.273,109.004l-68.98,54.503l43.751,-163.507c19.303,-72.67 65.289,-109.005 137.959,-109.005l54.502,0c72.67,0 99.354,36.335 80.051,109.005l-43.858,163.507l-54.502,-0l29.38,-109.005l-109.004,-0l68.979,-54.502l54.502,-0Zm383.22,-109.005l-43.432,163.507c-19.587,72.67 -65.715,109.005 -138.385,109.005l-54.502,-0c-72.67,-0 -99.211,-36.335 -79.624,-109.005l54.502,-0c-9.935,36.335 3.264,54.502 39.599,54.502l54.503,0c36.334,0 59.47,-18.167 69.405,-54.502l28.954,-109.005l-109.004,0l68.979,-54.502l109.005,0Zm81.753,0l-72.812,272.512l-54.502,-0l72.812,-272.512l54.502,0Zm-45.56,272.512l72.811,-272.512l163.507,0c72.67,0 101.766,27.251 87.289,81.753c-6.529,24.413 -18.877,43.29 -37.044,56.632c11.07,13.058 13.625,30.515 7.664,52.373c-14.477,54.502 -58.051,81.754 -130.72,81.754l-163.507,-0Zm68.979,-54.503l109.005,0c36.335,0 56.915,-9.084 61.741,-27.251c5.109,-18.167 -10.503,-27.251 -46.838,-27.251l-54.503,-0l68.98,-54.502c36.335,-0 56.915,-9.084 61.741,-27.252c4.825,-18.167 -10.929,-27.251 -47.264,-27.251l-109.005,0l-43.857,163.507Zm-1115.13,392.579c9.651,-36.334 -3.691,-54.501 -40.024,-54.501l-54.501,-0c-36.334,-0 -59.327,18.167 -68.978,54.501l-29.273,109.002l-68.978,54.501l43.75,-163.503c19.302,-72.668 65.287,-109.002 137.955,-109.002l54.501,-0c72.668,-0 99.351,36.334 80.049,109.002l-43.857,163.503l-54.501,-0l29.38,-109.002l-109.002,-0l68.978,-54.501l54.501,-0Zm106.944,109.002l-68.978,54.501l72.739,-272.505l54.501,-0l-58.262,218.004Zm138.31,-109.002l54.501,-0l28.954,-109.002l54.501,-0l-72.81,272.505l-54.501,-0l29.379,-109.002l-109.002,-0l68.978,-54.501Zm299.755,-0c9.651,-36.334 -3.69,-54.501 -40.024,-54.501c-36.334,-0 -59.326,18.167 -68.978,54.501l-43.856,163.503l-54.501,-0l43.856,-163.503c19.303,-72.668 65.288,-109.002 137.956,-109.002c36.334,-0 61.172,9.083 74.513,27.25c22.993,-18.167 52.656,-27.25 88.99,-27.25c72.668,-0 99.351,36.334 80.048,109.002l-43.856,163.503l-54.501,-0l43.856,-163.503c9.651,-36.334 -3.69,-54.501 -40.024,-54.501c-36.334,-0 -59.327,18.167 -68.978,54.501l-43.856,163.503l-54.501,-0l43.856,-163.503Zm368.733,-54.501c-36.334,-0 -59.326,18.167 -68.977,54.501l-14.477,54.501c-9.935,36.334 3.264,54.501 39.598,54.501l163.503,-0l-14.477,54.501l-163.503,-0c-72.668,-0 -99.208,-36.334 -79.622,-109.002l14.477,-54.501c19.302,-72.668 65.287,-109.002 137.955,-109.002l163.503,-0l-14.477,54.501l-163.503,-0Zm134.55,109.002l-163.503,-0l68.977,-54.501l109.002,-0l-14.476,54.501Zm-2.129,109.002l43.856,-163.503l54.501,-0l-29.38,109.002l109.002,-0c36.334,-0 59.469,-18.167 69.404,-54.501l14.477,-54.501c9.651,-36.334 -3.69,-54.501 -40.024,-54.501l-163.503,-0l68.977,-54.501l109.002,-0c72.668,-0 99.351,36.334 80.049,109.002l-14.477,54.501c-19.586,72.668 -65.714,109.002 -138.381,109.002l-163.503,-0Z" style="fill:url(#_Linear2);"/><rect x="1697.62" y="0" width="19.17" height="774.091" style="fill:url(#_Linear3);"/><defs><linearGradient id="_Linear1" x1="0" y1="0" x2="1" y2="0" gradientUnits="userSpaceOnUse" gradientTransform="matrix(-1110.65,774.091,-774.091,-1110.65,2827.45,1.36424e-12)"><stop offset="0" style="stop-color:#0050b2;stop-opacity:1"/><stop offset="1" style="stop-color:#00aeff;stop-opacity:1"/></linearGradient><linearGradient id="_Linear2" x1="0" y1="0" x2="1" y2="0" gradientUnits="userSpaceOnUse" gradientTransform="matrix(1635.12,774.091,-774.091,1635.12,0,2.72848e-12)"><stop offset="0" style="stop-color:#0050b2;stop-opacity:1"/><stop offset="1" style="stop-color:#00aeff;stop-opacity:1"/></linearGradient><linearGradient id="_Linear3" x1="0" y1="0" x2="1" y2="0" gradientUnits="userSpaceOnUse" gradientTransform="matrix(-1110.65,774.091,-774.091,-1110.65,2827.45,1.59162e-12)"><stop offset="0" style="stop-color:#00163e;stop-opacity:1"/><stop offset="0.5" style="stop-color:#0050b2;stop-opacity:1"/><stop offset="1" style="stop-color:#00aeff;stop-opacity:1"/></linearGradient></defs></svg>